<svg xmlns="http://www.w3.org/2000/svg" viewBox="0 0 100 100" role="img" aria-label="Logo Marie de la Loire — ML">
  <path d="M51.92 39.89Q51.12 41.06 50.13 42.71Q49.14 44.35 48.02 46.39Q47.07 48.09 46.14 50Q45.22 51.91 44.38 53.79Q43.54 55.67 42.83 57.4Q42.12 59.12 41.6 60.44Q41.07 61.76 40.77 62.55Q40.48 63.34 40.48 63.36Q40.29 63.83 39.8 63.83Q39.56 63.83 39.37 63.67Q39.19 63.51 39.13 63.27Q39.13 63.25 38.95 62.47Q38.78 61.7 38.48 60.4Q38.18 59.1 37.8 57.41Q37.41 55.72 36.99 53.88Q36.57 52.04 36.14 50.16Q35.71 48.27 35.34 46.57Q34.09 50.1 32.83 52.82Q31.57 55.54 30.24 57.54Q28.92 59.55 27.51 60.92Q26.1 62.28 24.56 63.11Q23.01 63.94 21.32 64.3Q19.63 64.65 17.75 64.65Q16.78 64.65 15.68 64.44Q14.57 64.22 13.49 63.77Q12.41 63.32 11.42 62.65Q10.43 61.98 9.66 61.06Q8.9 60.13 8.45 58.96Q8 57.8 8 56.36Q8 54.85 8.63 53.59Q9.27 52.33 10.35 51.42Q11.44 50.51 12.86 50.01Q14.29 49.51 15.88 49.51Q17.04 49.51 17.96 49.7Q18.89 49.9 19.6 50.2Q20.31 50.49 20.81 50.85Q21.32 51.2 21.65 51.5Q21.99 51.8 22.14 52.02Q22.29 52.23 22.31 52.23Q22.42 52.44 22.42 52.62Q22.42 52.89 22.22 53.11Q22.02 53.33 21.71 53.33Q21.33 53.33 21.11 53.02Q21.09 53 20.81 52.67Q20.53 52.34 19.9 51.95Q19.26 51.56 18.26 51.24Q17.26 50.92 15.82 50.92Q14.52 50.92 13.35 51.33Q12.18 51.73 11.31 52.46Q10.45 53.18 9.93 54.18Q9.42 55.18 9.42 56.38Q9.42 57.55 9.81 58.53Q10.2 59.5 10.86 60.26Q11.51 61.03 12.37 61.59Q13.23 62.15 14.16 62.51Q15.1 62.88 16.04 63.05Q16.98 63.23 17.82 63.23Q19.24 63.23 20.6 63.02Q21.95 62.8 23.27 62.2Q24.58 61.61 25.85 60.56Q27.12 59.51 28.37 57.83Q29.63 56.15 30.85 53.78Q32.07 51.41 33.3 48.18Q33.68 47.21 34.03 46.09Q34.39 44.97 34.76 43.83Q34.44 42.18 34.3 41.03Q34.16 39.87 34.16 39.1Q34.16 38.28 34.29 37.8Q34.43 37.31 34.63 37.06Q34.84 36.81 35.08 36.74Q35.32 36.68 35.55 36.68Q35.73 36.68 35.97 36.75Q36.2 36.82 36.4 37.08Q36.59 37.33 36.72 37.81Q36.85 38.3 36.85 39.12Q36.85 40.02 36.68 41.19Q36.52 42.37 36.18 43.79Q36.42 44.93 36.74 46.33Q37.06 47.73 37.39 49.23Q37.73 50.74 38.09 52.31Q38.44 53.88 38.78 55.37Q39.11 56.86 39.42 58.23Q39.73 59.59 39.99 60.69Q40.49 59.42 41.22 57.62Q41.95 55.82 42.85 53.79Q43.74 51.76 44.74 49.66Q45.74 47.56 46.79 45.7Q48.26 43.04 49.5 41.15Q50.73 39.25 51.62 38.02Q52.52 36.79 53.03 36.2Q53.55 35.61 53.59 35.55Q53.79 35.35 54.09 35.35Q54.41 35.35 54.6 35.56Q54.8 35.78 54.8 36.06Q54.8 36.19 54.74 36.32Q54.74 36.34 54.53 36.87Q54.31 37.4 53.99 38.33Q53.66 39.25 53.27 40.49Q52.88 41.74 52.5 43.16Q52.13 44.59 51.84 46.15Q51.55 47.71 51.42 49.26Q51.36 49.97 51.33 50.75Q51.29 51.52 51.29 52.31Q51.29 53.54 51.4 54.79Q51.51 56.04 51.77 57.2Q52.04 58.36 52.48 59.37Q52.93 60.39 53.59 61.16Q54.24 61.92 55.14 62.39Q56.05 62.86 57.25 62.9Q57.54 62.91 57.72 63.15Q57.9 63.38 57.9 63.64Q57.9 63.9 57.69 64.11Q57.49 64.31 57.21 64.31Q56.91 64.31 56.61 64.26Q55.27 64.07 54.24 63.48Q53.21 62.9 52.47 62.03Q51.72 61.16 51.22 60.05Q50.73 58.94 50.43 57.67Q50.13 56.4 50.01 55.02Q49.89 53.65 49.89 52.25Q49.89 50.59 50.06 48.93Q50.22 47.26 50.5 45.69Q50.78 44.11 51.16 42.63Q51.53 41.16 51.92 39.89ZM91.89 60.9Q91.87 60.93 91.66 61.21Q91.46 61.49 91.08 61.9Q90.69 62.3 90.12 62.76Q89.55 63.21 88.78 63.6Q88 63.98 87.03 64.24Q86.06 64.5 84.88 64.5Q83.05 64.5 81.45 64.04Q79.84 63.59 78.36 62.88Q76.87 62.17 75.44 61.31Q74 60.45 72.5 59.63Q71.59 61.16 70.4 62.12Q69.22 63.08 67.94 63.62Q66.66 64.16 65.4 64.36Q64.14 64.56 63.07 64.56Q62.05 64.56 60.99 64.34Q59.94 64.13 59.09 63.63Q58.24 63.14 57.69 62.33Q57.15 61.53 57.15 60.34Q57.15 59.22 57.67 58.31Q58.18 57.4 59.09 56.77Q59.99 56.13 61.22 55.79Q62.46 55.44 63.88 55.44Q64.94 55.44 66 55.63Q67.05 55.82 68.06 56.13Q69.07 56.45 70.02 56.85Q70.97 57.26 71.81 57.67Q71.92 57.33 72.01 56.99Q72.09 56.66 72.16 56.26Q72.22 55.85 72.25 55.36Q72.28 54.86 72.28 54.21Q72.28 53.59 72.25 53.03Q72.22 52.47 72.2 51.81Q72.17 51.15 72.14 50.32Q72.11 49.49 72.11 48.33Q72.11 45.66 72.63 43.46Q73.16 41.27 74.18 39.7Q75.21 38.13 76.74 37.26Q78.27 36.4 80.31 36.4Q81.54 36.4 82.65 36.79Q83.76 37.18 84.61 37.91Q85.46 38.64 85.96 39.64Q86.45 40.65 86.45 41.89Q86.45 42.56 86.27 43.29Q86.08 44.01 85.75 44.62Q85.43 45.23 85.01 45.62Q84.59 46.01 84.12 46.01Q83.86 46.01 83.65 45.86Q83.45 45.71 83.45 45.4Q83.45 45.17 83.55 45.01Q83.65 44.86 83.8 44.72Q84.34 44.24 84.69 43.53Q85.03 42.82 85.03 41.89Q85.03 40.95 84.65 40.2Q84.27 39.44 83.62 38.91Q82.98 38.37 82.13 38.09Q81.28 37.8 80.35 37.8Q78.59 37.8 77.3 38.56Q76.01 39.33 75.17 40.72Q74.33 42.11 73.93 44.08Q73.53 46.05 73.53 48.46Q73.53 49.62 73.56 50.49Q73.59 51.37 73.61 52.1Q73.64 52.83 73.67 53.47Q73.7 54.12 73.7 54.79Q73.7 55.18 73.66 55.64Q73.62 56.1 73.55 56.57Q73.47 57.05 73.35 57.51Q73.23 57.96 73.08 58.34Q74.5 59.09 75.88 59.93Q77.27 60.77 78.69 61.47Q80.12 62.17 81.64 62.62Q83.17 63.08 84.87 63.08Q86.36 63.08 87.45 62.63Q88.55 62.19 89.26 61.63Q89.98 61.08 90.34 60.63Q90.69 60.17 90.69 60.15Q90.9 59.81 91.29 59.81Q91.61 59.81 91.8 60.04Q92 60.26 92 60.52Q92 60.73 91.89 60.9ZM71.27 58.94Q70.47 58.54 69.58 58.16Q68.69 57.78 67.76 57.48Q66.83 57.18 65.85 57Q64.87 56.83 63.89 56.83Q62.79 56.83 61.82 57.06Q60.85 57.29 60.12 57.74Q59.39 58.19 58.97 58.82Q58.55 59.46 58.55 60.26Q58.55 61.01 58.93 61.56Q59.3 62.11 59.93 62.47Q60.55 62.84 61.37 63.02Q62.19 63.19 63.09 63.19Q64.17 63.19 65.33 63.02Q66.49 62.84 67.57 62.36Q68.66 61.89 69.61 61.06Q70.56 60.22 71.27 58.94Z" fill="#000000"/>
</svg>
