<svg xmlns="http://www.w3.org/2000/svg" viewBox="0 0 100 100" role="img" aria-label="Logo Marie de la Loire — ML">
  <rect width="100" height="100" rx="22" fill="#0e0e0e"/>
  <path transform="matrix(0.01690 0 0 -0.01690 11.4931 62.6132)" d="M2382 1288Q2339 1225 2286.0 1137.0Q2233 1049 2173 940Q2122 849 2072.5 746.5Q2023 644 1978.0 543.5Q1933 443 1895.0 350.5Q1857 258 1829.0 187.5Q1801 117 1785.0 74.5Q1769 32 1769 31Q1759 6 1733 6Q1720 6 1710.0 14.5Q1700 23 1697 36Q1697 37 1687.5 78.5Q1678 120 1662.0 189.5Q1646 259 1625.5 349.5Q1605 440 1582.5 538.5Q1560 637 1537.0 738.0Q1514 839 1494 930Q1427 741 1359.5 595.5Q1292 450 1221.0 342.5Q1150 235 1074.5 162.0Q999 89 916.5 44.5Q834 0 743.5 -19.0Q653 -38 552 -38Q500 -38 441.0 -26.5Q382 -15 324.0 9.0Q266 33 213.0 69.0Q160 105 119.0 154.5Q78 204 54.0 266.5Q30 329 30 406Q30 487 64.0 554.5Q98 622 156.0 670.5Q214 719 290.5 746.0Q367 773 452 773Q514 773 563.5 762.5Q613 752 651.0 736.0Q689 720 716.0 701.0Q743 682 761.0 666.0Q779 650 787.0 638.5Q795 627 796 627Q802 616 802 606Q802 592 791.5 580.0Q781 568 764 568Q744 568 732 585Q731 586 716.0 603.5Q701 621 667.0 642.0Q633 663 579.5 680.0Q526 697 449 697Q379 697 316.5 675.5Q254 654 207.5 615.0Q161 576 133.5 522.5Q106 469 106 405Q106 342 127.0 290.0Q148 238 183.0 197.0Q218 156 264.0 126.0Q310 96 360.0 76.5Q410 57 460.5 47.5Q511 38 556 38Q632 38 704.5 49.5Q777 61 847.5 93.0Q918 125 986.0 181.0Q1054 237 1121.0 327.0Q1188 417 1253.5 544.0Q1319 671 1385 844Q1405 896 1424.0 956.0Q1443 1016 1463 1077Q1446 1165 1438.5 1227.0Q1431 1289 1431 1330Q1431 1374 1438.0 1400.0Q1445 1426 1456.0 1439.5Q1467 1453 1480.0 1456.5Q1493 1460 1505 1460Q1515 1460 1527.5 1456.0Q1540 1452 1550.5 1438.5Q1561 1425 1568.0 1399.0Q1575 1373 1575 1329Q1575 1281 1566.0 1218.0Q1557 1155 1539 1079Q1552 1018 1569.0 943.0Q1586 868 1604.0 787.5Q1622 707 1641.0 623.0Q1660 539 1678.0 459.0Q1696 379 1712.5 306.0Q1729 233 1743 174Q1770 242 1809.0 338.5Q1848 435 1896.0 543.5Q1944 652 1997.5 764.5Q2051 877 2107 977Q2186 1119 2252.0 1220.5Q2318 1322 2366.0 1388.0Q2414 1454 2441.5 1485.5Q2469 1517 2471 1520Q2482 1531 2498 1531Q2515 1531 2525.5 1519.5Q2536 1508 2536 1493Q2536 1486 2533 1479Q2533 1478 2521.5 1449.5Q2510 1421 2492.5 1371.5Q2475 1322 2454.0 1255.5Q2433 1189 2413.0 1112.5Q2393 1036 2377.5 952.5Q2362 869 2355 786Q2352 748 2350.0 706.5Q2348 665 2348 623Q2348 557 2354.0 490.0Q2360 423 2374.0 361.0Q2388 299 2412.0 244.5Q2436 190 2471.0 149.0Q2506 108 2554.5 83.0Q2603 58 2667 56Q2683 55 2692.5 42.5Q2702 30 2702 16Q2702 2 2691.0 -9.0Q2680 -20 2665 -20Q2649 -20 2633 -17Q2561 -7 2506.0 24.5Q2451 56 2411.0 102.5Q2371 149 2344.5 208.5Q2318 268 2302.0 336.0Q2286 404 2279.5 477.5Q2273 551 2273 626Q2273 715 2282.0 804.0Q2291 893 2306.0 977.5Q2321 1062 2341.0 1141.0Q2361 1220 2382 1288Z M4522 163Q4521 161 4510.0 146.0Q4499 131 4478.5 109.5Q4458 88 4427.5 63.5Q4397 39 4355.5 18.5Q4314 -2 4262.0 -16.0Q4210 -30 4147 -30Q4049 -30 3963.0 -5.5Q3877 19 3797.5 57.0Q3718 95 3641.0 141.0Q3564 187 3484 231Q3435 149 3371.5 97.5Q3308 46 3239.5 17.0Q3171 -12 3103.5 -22.5Q3036 -33 2979 -33Q2924 -33 2867.5 -21.5Q2811 -10 2765.5 16.5Q2720 43 2691.0 86.0Q2662 129 2662 193Q2662 253 2689.5 301.5Q2717 350 2765.5 384.0Q2814 418 2880.0 436.5Q2946 455 3022 455Q3079 455 3135.5 445.0Q3192 435 3246.0 418.0Q3300 401 3351.0 379.5Q3402 358 3447 336Q3453 354 3457.5 372.0Q3462 390 3465.5 411.5Q3469 433 3470.5 459.5Q3472 486 3472 521Q3472 554 3470.5 584.0Q3469 614 3467.5 649.5Q3466 685 3464.5 729.5Q3463 774 3463 836Q3463 979 3491.0 1096.5Q3519 1214 3574.0 1298.0Q3629 1382 3711.0 1428.5Q3793 1475 3902 1475Q3968 1475 4027.5 1454.0Q4087 1433 4132.5 1394.0Q4178 1355 4204.5 1301.0Q4231 1247 4231 1181Q4231 1145 4221.0 1106.0Q4211 1067 4193.5 1034.5Q4176 1002 4153.5 981.0Q4131 960 4106 960Q4092 960 4081.0 968.0Q4070 976 4070 993Q4070 1005 4075.5 1013.5Q4081 1022 4089 1029Q4118 1055 4136.5 1093.0Q4155 1131 4155 1181Q4155 1231 4134.5 1271.5Q4114 1312 4079.5 1340.5Q4045 1369 3999.5 1384.5Q3954 1400 3904 1400Q3810 1400 3741.0 1359.0Q3672 1318 3627.0 1243.5Q3582 1169 3560.5 1063.5Q3539 958 3539 829Q3539 767 3540.5 720.0Q3542 673 3543.5 634.0Q3545 595 3546.5 560.5Q3548 526 3548 490Q3548 469 3546.0 444.5Q3544 420 3540.0 394.5Q3536 369 3529.5 344.5Q3523 320 3515 300Q3591 260 3665.0 215.0Q3739 170 3815.5 132.5Q3892 95 3973.5 70.5Q4055 46 4146 46Q4226 46 4284.5 70.0Q4343 94 4381.5 123.5Q4420 153 4439.0 177.5Q4458 202 4458 203Q4469 221 4490 221Q4507 221 4517.5 209.0Q4528 197 4528 183Q4528 172 4522 163ZM3418 268Q3375 289 3327.5 309.5Q3280 330 3230.0 346.0Q3180 362 3127.5 371.5Q3075 381 3023 381Q2964 381 2912.0 368.5Q2860 356 2821.0 332.0Q2782 308 2759.5 274.0Q2737 240 2737 197Q2737 157 2757.0 127.5Q2777 98 2810.5 78.5Q2844 59 2888.0 49.5Q2932 40 2980 40Q3038 40 3100.0 49.5Q3162 59 3220.0 84.5Q3278 110 3329.0 154.5Q3380 199 3418 268Z" fill="#e9e2d7"/>
</svg>
